<svg width="16" height="16" viewBox="0 0 16 16" fill="none" xmlns="http://www.w3.org/2000/svg">
<rect width="16" height="16" fill="black"/>
<path fill-rule="evenodd" clip-rule="evenodd" d="M8.4781 5.13125C8.42362 5.27259 7.82815 6.64202 6.42168 9.86051C5.93343 10.9778 5.53398 11.9162 5.53398 11.9459C5.53398 11.9757 5.75962 12 6.0354 12C6.4596 12 6.54265 11.9843 6.57427 11.8979C6.59484 11.8418 6.90095 11.1396 7.25461 10.3375C8.31876 7.92384 9.5308 5.11008 9.5308 5.05332C9.5308 5.02398 9.30533 5 9.02972 5C8.56427 5 8.52507 5.00933 8.4781 5.13125ZM4.85576 6.10559C4.67931 6.17658 4.554 6.32656 3.73959 7.44218L3 8.4552L3.14841 8.66718C3.78608 9.57823 4.59067 10.6363 4.71681 10.7297C4.80956 10.7984 5.00658 10.8551 5.21906 10.8742L5.56866 10.9057L5.74234 10.4766C5.83786 10.2406 5.92485 10.0275 5.9356 10.003C5.94642 9.9784 5.83227 9.95833 5.68198 9.95833C5.53169 9.95833 5.35894 9.93191 5.29811 9.89959C5.19625 9.84546 4.18212 8.54206 4.18212 8.46523C4.18212 8.40737 5.07476 7.19328 5.1966 7.08542C5.29664 6.99681 5.44176 6.98333 6.29414 6.98333H7.27642L7.44034 6.58958C7.53045 6.37299 7.61732 6.16305 7.63337 6.12292C7.65623 6.06581 7.37134 6.05082 6.31906 6.05368C5.58018 6.05572 4.9217 6.07911 4.85576 6.10559ZM9.47925 6.17332C9.44915 6.24985 9.3691 6.43937 9.30133 6.59442C9.23356 6.74947 9.17814 6.90044 9.17814 6.92984C9.17814 6.95924 9.29052 6.9852 9.42794 6.98742C9.56536 6.98969 9.723 7.00935 9.7783 7.03117C9.86188 7.06413 10.8827 8.39564 10.8827 8.47171C10.8827 8.4979 9.96104 9.7747 9.87276 9.87083C9.84319 9.90303 9.36857 9.94223 8.81366 9.95833L7.80817 9.9875L7.61391 10.4396L7.41965 10.8917H8.76041C10.0537 10.8917 10.1081 10.887 10.2968 10.7604C10.4045 10.6882 10.8443 10.1446 11.2743 9.55239C11.9514 8.61988 12.0465 8.46191 11.9837 8.37347C11.1557 7.20657 10.4176 6.22179 10.3295 6.16632C10.2677 6.12741 10.0634 6.08173 9.87552 6.06482C9.55654 6.03612 9.53038 6.04329 9.47925 6.17332Z" fill="white"/>
</svg>
