<svg width="180" height="141" viewBox="0 0 180 141" fill="none" xmlns="http://www.w3.org/2000/svg">
<path fill-rule="evenodd" clip-rule="evenodd" d="M109.512 2.64375C108.423 5.49077 96.5192 33.0751 68.4026 97.9045C58.6419 120.409 50.6566 139.313 50.6566 139.911C50.6566 140.51 55.1674 141 60.6805 141C69.1605 141 70.8208 140.683 71.4529 138.944C71.8642 137.813 77.9836 123.669 85.0536 107.512C106.327 58.8945 130.557 2.21723 130.557 1.07395C130.557 0.482927 126.049 0 120.54 0C111.235 0 110.451 0.188 109.512 2.64375ZM37.0983 22.2698C33.5709 23.6998 31.0658 26.7207 14.785 49.1925L0 69.5976L2.96687 73.8675C15.7144 92.2187 31.799 113.531 34.3206 115.413C36.1747 116.797 40.1133 117.938 44.361 118.324L51.3498 118.958L54.822 110.315C56.7314 105.561 58.4703 101.267 58.6854 100.774C58.9016 100.279 56.6197 99.875 53.6153 99.875C50.6108 99.875 47.1575 99.3427 45.9413 98.6918C43.9051 97.6014 23.6316 71.3472 23.6316 69.7997C23.6316 68.6341 41.4763 44.1788 43.9121 42.0062C45.9119 40.2214 48.813 39.95 65.8529 39.95H85.4895L88.7666 32.0187C90.5678 27.656 92.3045 23.4271 92.6253 22.6187C93.0823 21.4684 87.3871 21.1665 66.3511 21.224C51.5801 21.2652 38.4166 21.7363 37.0983 22.2698ZM129.526 23.6339C128.925 25.1755 127.324 28.9931 125.969 32.1163C124.615 35.2394 123.507 38.2803 123.507 38.8725C123.507 39.4647 125.753 39.9876 128.5 40.0323C131.248 40.0781 134.399 40.4741 135.505 40.9135C137.175 41.5774 157.582 68.3979 157.582 69.9301C157.582 70.4577 139.158 96.1761 137.393 98.1125C136.802 98.7611 127.314 99.5507 116.22 99.875L96.1197 100.462L92.2363 109.569L88.353 118.675H115.156C141.009 118.675 142.097 118.581 145.87 116.031C148.022 114.577 156.816 103.627 165.412 91.6982C178.947 72.9146 180.848 69.7327 179.593 67.9514C163.039 44.4467 148.285 24.6104 146.523 23.493C145.288 22.7092 141.203 21.7892 137.448 21.4484C131.071 20.8703 130.548 21.0149 129.526 23.6339Z" fill="black"/>
</svg>
